<?xml version="1.0" encoding="utf-8"?>
<!-- Generator: Adobe Illustrator 23.0.6, SVG Export Plug-In . SVG Version: 6.00 Build 0)  -->
<svg version="1.1" id="Layer_1" xmlns="http://www.w3.org/2000/svg" xmlns:xlink="http://www.w3.org/1999/xlink" x="0px" y="0px"
	 width="984px" height="108px" viewBox="0 0 984 108" style="enable-background:new 0 0 984 108;" xml:space="preserve">
<style type="text/css">
	.st0{fill-rule:evenodd;clip-rule:evenodd;fill:#F3F2F1;}
	.st1{fill:none;stroke:#008242;stroke-width:3;stroke-miterlimit:10;}
	.st2{fill:#008242;}
	.st3{fill:#FFFFFF;}
	.st4{fill:none;stroke:#FFFFFF;stroke-width:4;stroke-miterlimit:10;}
	.st5{fill:none;}
	.st6{font-family:'ArialMT';}
	.st7{font-size:14px;}
	.st8{font-family:'Arial-BoldMT';}
	.st9{fill:#F3F2F1;}
	.st10{fill:#1D70B8;}
	.st11{fill:#F8F8F8;}
	.st12{fill:#FFFFFF;stroke:#979797;stroke-width:3;}
	.st13{fill:#D7D7D7;}
	.st14{fill:none;stroke:#979797;}
	.st15{fill:none;stroke:#979797;stroke-linecap:square;}
	.st16{fill:#C9E1F1;}
	.st17{fill:#FFFFFF;stroke:#000000;stroke-width:3;}
	.st18{fill:none;stroke:#FF0000;stroke-width:2;}
	.st19{fill:#9B9B9B;}
	.st20{fill-rule:evenodd;clip-rule:evenodd;fill:#D8D8D8;}
	.st21{fill:#FFFFFF;stroke:#9B9B9B;}
	.st22{fill:none;stroke:#9B9B9B;}
	.st23{fill:#FFFFFF;stroke:#FF0000;stroke-width:2;}
	.st24{fill-rule:evenodd;clip-rule:evenodd;fill:#F8E71C;}
	.st25{fill-rule:evenodd;clip-rule:evenodd;}
	.st26{fill:none;stroke:#FFFFFF;stroke-width:4;stroke-linecap:square;}
	.st27{fill-rule:evenodd;clip-rule:evenodd;fill:#FFFFFF;}
	.st28{fill-rule:evenodd;clip-rule:evenodd;fill:#00703C;}
	.st29{fill:#B10E1E;}
	.st30{fill-rule:evenodd;clip-rule:evenodd;fill:#B10E1E;}
	.st31{fill-rule:evenodd;clip-rule:evenodd;fill:#B10E1E;stroke:#979797;}
	.st32{fill-rule:evenodd;clip-rule:evenodd;fill:#D0021B;}
</style>
<line class="st1" x1="15" y1="14.6" x2="937.6" y2="14.6"/>
<g>
	<circle class="st2" cx="15" cy="15" r="15"/>
</g>
<polyline class="st4" points="7,15.2 12.2,19.9 23.4,9.3 "/>
<g>
	<circle class="st2" cx="107" cy="15" r="15"/>
</g>
<polyline class="st4" points="99,15.2 104.2,19.9 115.4,9.3 "/>
<g>
	<circle class="st2" cx="199" cy="15" r="15"/>
</g>
<polyline class="st4" points="191,15.2 196.2,19.9 207.4,9.3 "/>
<g>
	<circle class="st2" cx="291" cy="15" r="15"/>
</g>
<polyline class="st4" points="283,15.2 288.2,19.9 299.4,9.3 "/>
<g>
	<circle class="st3" cx="383" cy="15" r="13.8"/>
	<g>
		<path class="st2" d="M383,2.5c6.9,0,12.5,5.6,12.5,12.5s-5.6,12.5-12.5,12.5s-12.5-5.6-12.5-12.5S376.1,2.5,383,2.5 M383,0
			c-8.3,0-15,6.7-15,15c0,8.3,6.7,15,15,15c8.3,0,15-6.7,15-15C398,6.7,391.3,0,383,0L383,0z"/>
	</g>
</g>
<g>
	<circle class="st3" cx="475" cy="15" r="13.8"/>
	<g>
		<path class="st2" d="M475,2.5c6.9,0,12.5,5.6,12.5,12.5s-5.6,12.5-12.5,12.5s-12.5-5.6-12.5-12.5S468.1,2.5,475,2.5 M475,0
			c-8.3,0-15,6.7-15,15c0,8.3,6.7,15,15,15c8.3,0,15-6.7,15-15C490,6.7,483.3,0,475,0L475,0z"/>
	</g>
</g>
<g>
	<circle class="st3" cx="567" cy="15" r="13.8"/>
	<g>
		<path class="st2" d="M567,2.5c6.9,0,12.5,5.6,12.5,12.5s-5.6,12.5-12.5,12.5s-12.5-5.6-12.5-12.5S560.1,2.5,567,2.5 M567,0
			c-8.3,0-15,6.7-15,15c0,8.3,6.7,15,15,15c8.3,0,15-6.7,15-15C582,6.7,575.3,0,567,0L567,0z"/>
	</g>
</g>
<g>
	<circle class="st3" cx="659" cy="15" r="13.8"/>
	<g>
		<path class="st2" d="M659,2.5c6.9,0,12.5,5.6,12.5,12.5s-5.6,12.5-12.5,12.5s-12.5-5.6-12.5-12.5S652.1,2.5,659,2.5 M659,0
			c-8.3,0-15,6.7-15,15c0,8.3,6.7,15,15,15c8.3,0,15-6.7,15-15C674,6.7,667.3,0,659,0L659,0z"/>
	</g>
</g>
<g>
	<circle class="st3" cx="751" cy="15" r="13.8"/>
	<g>
		<path class="st2" d="M751,2.5c6.9,0,12.5,5.6,12.5,12.5s-5.6,12.5-12.5,12.5s-12.5-5.6-12.5-12.5S744.1,2.5,751,2.5 M751,0
			c-8.3,0-15,6.7-15,15c0,8.3,6.7,15,15,15c8.3,0,15-6.7,15-15C766,6.7,759.3,0,751,0L751,0z"/>
	</g>
</g>
<g>
	<circle class="st3" cx="843" cy="15" r="13.8"/>
	<g>
		<path class="st2" d="M843,2.5c6.9,0,12.5,5.6,12.5,12.5s-5.6,12.5-12.5,12.5s-12.5-5.6-12.5-12.5S836.1,2.5,843,2.5 M843,0
			c-8.3,0-15,6.7-15,15c0,8.3,6.7,15,15,15c8.3,0,15-6.7,15-15C858,6.7,851.3,0,843,0L843,0z"/>
	</g>
</g>
<g>
	<circle class="st3" cx="935" cy="15" r="13.8"/>
	<g>
		<path class="st2" d="M935,2.5c6.9,0,12.5,5.6,12.5,12.5s-5.6,12.5-12.5,12.5s-12.5-5.6-12.5-12.5S928.1,2.5,935,2.5 M935,0
			c-8.3,0-15,6.7-15,15c0,8.3,6.7,15,15,15c8.3,0,15-6.7,15-15C950,6.7,943.3,0,935,0L935,0z"/>
	</g>
</g>
<rect y="45.3" class="st5" width="64.8" height="27.4"/>
<text transform="matrix(1 0 0 1 1.244770e-04 55.3536)"><tspan x="0" y="0" class="st6 st7">Appeal </tspan><tspan x="0" y="16.8" class="st6 st7">submitted</tspan></text>
<rect x="92" y="45.3" class="st5" width="71.4" height="44.8"/>
<text transform="matrix(1 0 0 1 91.9999 55.3536)"><tspan x="0" y="0" class="st6 st7">A</tspan><tspan x="9.1" y="0" class="st6 st7">waiting </tspan><tspan x="0" y="16.8" class="st6 st7">respondent </tspan><tspan x="0" y="33.6" class="st6 st7">evidence</tspan></text>
<rect x="184" y="45.3" class="st5" width="50.8" height="27.4"/>
<text transform="matrix(1 0 0 1 183.9999 55.3536)"><tspan x="0" y="0" class="st6 st7">Case </tspan><tspan x="0" y="16.8" class="st6 st7">building</tspan></text>
<rect x="276" y="45.3" class="st5" width="47.8" height="48.4"/>
<text transform="matrix(1 0 0 1 275.9996 55.3536)"><tspan x="0" y="0" class="st6 st7">Case </tspan><tspan x="0" y="16.8" class="st6 st7">under </tspan><tspan x="0" y="33.6" class="st6 st7">review</tspan></text>
<rect x="368" y="45.3" class="st5" width="83.1" height="27.4"/>
<text transform="matrix(1 0 0 1 367.9996 55.3527)"><tspan x="0" y="0" class="st8 st7">Respondent </tspan><tspan x="0" y="16.8" class="st8 st7">review</tspan></text>
<rect x="460" y="45.3" class="st5" width="82" height="48.4"/>
<text transform="matrix(1 0 0 1 459.9996 55.3536)"><tspan x="0" y="0" class="st6 st7">Submit  </tspan><tspan x="0" y="16.8" class="st6 st7">hearing </tspan><tspan x="0" y="33.6" class="st6 st7">requirements</tspan></text>
<polyline class="st4" points="7,15.2 12.2,19.9 23.4,9.3 "/>
<polyline class="st4" points="7,15.2 12.2,19.9 23.4,9.3 "/>
<rect x="552" y="45.3" class="st5" width="47.8" height="11"/>
<text transform="matrix(1 0 0 1 551.9996 55.3536)" class="st6 st7">Listing</text>
<rect x="644" y="44.9" class="st5" width="74.1" height="27.8"/>
<text transform="matrix(1 0 0 1 644.025 54.8915)"><tspan x="0" y="0" class="st6 st7">Prepare for </tspan><tspan x="0" y="16.8" class="st6 st7">hearing</tspan></text>
<rect x="735.9" y="44.5" class="st5" width="59.6" height="28.2"/>
<text transform="matrix(1 0 0 1 735.9235 54.5328)"><tspan x="0" y="0" class="st6 st7">Final </tspan><tspan x="0" y="16.8" class="st6 st7">bundling</tspan></text>
<rect x="827.6" y="44.5" class="st5" width="54.9" height="28.2"/>
<text transform="matrix(1 0 0 1 827.5641 54.5328)"><tspan x="0" y="0" class="st6 st7">Pre </tspan><tspan x="0" y="16.8" class="st6 st7">hearing</tspan></text>
<rect x="920" y="44.5" class="st5" width="60.4" height="12.2"/>
<text transform="matrix(1 0 0 1 919.9999 54.5328)" class="st6 st7">Decision</text>
</svg>
