<?xml version="1.0" encoding="utf-8"?>
<!-- Generator: Adobe Illustrator 25.1.0, SVG Export Plug-In . SVG Version: 6.00 Build 0)  -->
<svg version="1.1" id="Layer_1" xmlns="http://www.w3.org/2000/svg" xmlns:xlink="http://www.w3.org/1999/xlink" x="0px" y="0px"
	 width="551px" height="282px" viewBox="0 0 551 282" style="enable-background:new 0 0 551 282;" xml:space="preserve">
<style type="text/css">
	.st0{fill:#F3F2F1;}
	.st1{fill-rule:evenodd;clip-rule:evenodd;fill:#F3F2F1;}
	.st2{fill:none;stroke:#008242;stroke-width:3;stroke-miterlimit:10;}
	.st3{fill:#008242;}
	.st4{fill:#FFFFFF;}
	.st5{fill:none;stroke:#FFFFFF;stroke-width:4;stroke-miterlimit:10;}
	.st6{fill:#1D70B8;}
	.st7{fill:#F8F8F8;}
	.st8{fill:#FFFFFF;stroke:#979797;stroke-width:3;}
	.st9{fill:#D7D7D7;}
	.st10{fill:none;stroke:#979797;}
	.st11{fill:none;stroke:#979797;stroke-linecap:square;}
	.st12{fill:#C9E1F1;}
	.st13{fill:#FFFFFF;stroke:#000000;stroke-width:3;}
	.st14{fill:none;stroke:#FF0000;stroke-width:2;}
	.st15{fill:#9B9B9B;}
	.st16{fill-rule:evenodd;clip-rule:evenodd;fill:#D8D8D8;}
	.st17{fill:#FFFFFF;stroke:#9B9B9B;}
	.st18{fill:none;stroke:#9B9B9B;}
	.st19{fill:#FFFFFF;stroke:#FF0000;stroke-width:2;}
	.st20{fill-rule:evenodd;clip-rule:evenodd;fill:none;}
	.st21{fill:#231F20;}
	.st22{font-family:'ArialMT';}
	.st23{font-size:2px;}
	.st24{fill-rule:evenodd;clip-rule:evenodd;fill:#F8E71C;}
	.st25{fill-rule:evenodd;clip-rule:evenodd;}
	.st26{fill:none;stroke:#FFFFFF;stroke-width:4;stroke-linecap:square;}
	.st27{fill-rule:evenodd;clip-rule:evenodd;fill:#FFFFFF;}
	.st28{fill-rule:evenodd;clip-rule:evenodd;fill:#00703C;}
	.st29{fill:#B10E1E;}
	.st30{fill-rule:evenodd;clip-rule:evenodd;fill:#B10E1E;}
	.st31{fill-rule:evenodd;clip-rule:evenodd;fill:#B10E1E;stroke:#979797;}
	.st32{fill-rule:evenodd;clip-rule:evenodd;fill:#D0021B;}
	.st33{fill:none;stroke:#DF0A15;stroke-miterlimit:10;}
	.st34{fill:#F7931E;}
	.st35{fill:none;}
	.st36{font-size:11px;}
</style>
<rect id="Rectangle_3_" class="st7" width="551" height="282"/>
<path id="Shape_1_" class="st8" d="M158.7,22L48.7,118.7l0,0c-0.4,0.4-0.7,0.9-0.7,1.4v135.9c0,1.1,0.9,1.9,1.9,1.9h220.1
	c1.1,0,1.9-0.9,1.9-1.9V120.1C272,119.5,159.5,21.4,158.7,22z"/>
<rect x="63" y="161" class="st16" width="85" height="10"/>
<rect id="Rectangle-Copy_1_" x="63" y="177" class="st16" width="85" height="9"/>
<rect id="Rectangle-Copy-3_2_" x="239" y="131" class="st16" width="21" height="27"/>
<rect id="Rectangle-Copy-2_1_" x="63" y="193" class="st16" width="85" height="9"/>
<polygon id="Path-4-Copy_2_" class="st12" points="376.9,121 228,145 358.3,210 352,165.5 "/>
<circle id="Oval-Copy_2_" class="st13" cx="428" cy="177" r="75"/>
<circle id="Oval-Copy-2_1_" class="st17" cx="428" cy="177" r="56"/>
<circle id="Oval-Copy-4_1_" class="st18" cx="211" cy="143" r="14"/>
<circle id="Oval-Copy-5_1_" class="st17" cx="211" cy="143" r="9"/>
<rect x="202.8" y="142" class="st20" width="16" height="2"/>
<text transform="matrix(1 0 0 1 204.909 143.7393)" class="st21 st22 st23">XX XX XXXX</text>
<text transform="matrix(1 0 0 1 217.3333 135)" class="st21 st22 st23">X</text>
<text transform="matrix(1 0 0 1 217.3333 153)" class="st21 st22 st23">X</text>
<text transform="matrix(1 0 0 1 204.3333 135)" class="st21 st22 st23">X</text>
<text transform="matrix(1 0 0 1 204.3333 153)" class="st21 st22 st23">X</text>
<text transform="matrix(1 0 0 1 208.3333 133)" class="st21 st22 st23">X</text>
<text transform="matrix(1 0 0 1 208.3333 155)" class="st21 st22 st23">X</text>
<text transform="matrix(1 0 0 1 213.3333 133)" class="st21 st22 st23">X</text>
<text transform="matrix(1 0 0 1 213.3333 155)" class="st21 st22 st23">X</text>
<circle id="Oval-Copy-3_1_" class="st17" cx="428" cy="177" r="37"/>
<rect id="Rectangle-Copy-4_2_" x="384" y="169" class="st19" width="88" height="19"/>
<rect x="394.2" y="174.5" class="st35" width="74.2" height="9.7"/>
<text transform="matrix(1 0 0 1 394.199 182.3607)" class="st22 st36">XX XX XXXX</text>
<rect x="397.1" y="133.9" class="st35" width="12.8" height="9.7"/>
<text transform="matrix(1 0 0 1 397.063 141.776)" class="st22 st36">X</text>
<rect x="413.9" y="126.2" class="st35" width="12.8" height="9.7"/>
<text transform="matrix(1 0 0 1 413.8902 134.0361)" class="st22 st36">X</text>
<rect x="433.3" y="126" class="st35" width="12.8" height="9.7"/>
<text transform="matrix(1 0 0 1 433.3456 133.8773)" class="st22 st36">X</text>
<rect x="451.3" y="134" class="st35" width="12.8" height="9.7"/>
<text transform="matrix(1 0 0 1 451.313 141.8386)" class="st22 st36">X</text>
<rect x="397" y="209.2" class="st35" width="12.8" height="9.7"/>
<text transform="matrix(1 0 0 1 397.0034 217.0877)" class="st22 st36">X</text>
<rect x="413.9" y="217.2" class="st35" width="12.8" height="9.7"/>
<text transform="matrix(1 0 0 1 413.9046 225.0335)" class="st22 st36">X</text>
<rect x="433.3" y="217.2" class="st35" width="12.8" height="9.7"/>
<text transform="matrix(1 0 0 1 433.2932 225.1117)" class="st22 st36">X</text>
<rect x="451.3" y="209.1" class="st35" width="12.8" height="9.7"/>
<text transform="matrix(1 0 0 1 451.2747 216.9809)" class="st22 st36">X</text>
</svg>
