<?xml version="1.0" encoding="utf-8"?>
<!-- Generator: Adobe Illustrator 25.1.0, SVG Export Plug-In . SVG Version: 6.00 Build 0)  -->
<svg version="1.1" id="Layer_1" xmlns="http://www.w3.org/2000/svg" xmlns:xlink="http://www.w3.org/1999/xlink" x="0px" y="0px"
	 width="782px" height="110.9px" viewBox="0 0 782 110.9" style="enable-background:new 0 0 782 110.9;" xml:space="preserve">
<style type="text/css">
	.st0{fill:#F3F2F1;}
	.st1{fill-rule:evenodd;clip-rule:evenodd;fill:#F3F2F1;}
	.st2{fill:none;stroke:#008242;stroke-width:3;stroke-miterlimit:10;}
	.st3{fill:#008242;}
	.st4{fill:#FFFFFF;}
	.st5{fill:none;stroke:#FFFFFF;stroke-width:4;stroke-miterlimit:10;}
	.st6{fill:#1D70B8;}
	.st7{fill:#F8F8F8;}
	.st8{fill:#FFFFFF;stroke:#979797;stroke-width:3;}
	.st9{fill:#D7D7D7;}
	.st10{fill:none;stroke:#979797;}
	.st11{fill:none;stroke:#979797;stroke-linecap:square;}
	.st12{fill:#C9E1F1;}
	.st13{fill:#FFFFFF;stroke:#000000;stroke-width:3;}
	.st14{fill:none;stroke:#FF0000;stroke-width:2;}
	.st15{fill:#9B9B9B;}
	.st16{fill-rule:evenodd;clip-rule:evenodd;fill:#D8D8D8;}
	.st17{fill:#FFFFFF;stroke:#9B9B9B;}
	.st18{fill:none;stroke:#9B9B9B;}
	.st19{fill:#FFFFFF;stroke:#FF0000;stroke-width:2;}
	.st20{fill-rule:evenodd;clip-rule:evenodd;fill:#F8E71C;}
	.st21{fill-rule:evenodd;clip-rule:evenodd;}
	.st22{fill:none;stroke:#FFFFFF;stroke-width:4;stroke-linecap:square;}
	.st23{fill-rule:evenodd;clip-rule:evenodd;fill:#FFFFFF;}
	.st24{fill-rule:evenodd;clip-rule:evenodd;fill:#00703C;}
	.st25{fill:#B10E1E;}
	.st26{fill-rule:evenodd;clip-rule:evenodd;fill:#B10E1E;}
	.st27{fill-rule:evenodd;clip-rule:evenodd;fill:#B10E1E;stroke:#979797;}
	.st28{fill-rule:evenodd;clip-rule:evenodd;fill:#D0021B;}
	.st29{fill:none;stroke:#DF0A15;stroke-miterlimit:10;}
	.st30{fill:none;}
	.st31{font-family:'ArialMT';}
	.st32{font-size:14px;}
	.st33{font-family:'Arial-BoldMT';}
	.st34{fill:#F7931E;}
</style>
<line class="st2" x1="15" y1="14.6" x2="729" y2="14.6"/>
<g>
	<circle class="st3" cx="15" cy="15" r="15"/>
</g>
<polyline class="st5" points="7,15.2 12.2,19.9 23.4,9.3 "/>
<g>
	<circle class="st3" cx="117" cy="15" r="15"/>
</g>
<polyline class="st5" points="108.8,15.2 114,19.9 125.2,9.3 "/>
<g>
	<circle class="st3" cx="219" cy="15" r="15"/>
</g>
<g>
	<circle class="st3" cx="321" cy="15" r="15"/>
</g>
<g>
	<circle class="st3" cx="423" cy="15" r="15"/>
</g>
<g>
	<circle class="st4" cx="525" cy="15" r="13.8"/>
	<g>
		<path class="st3" d="M525,2.5c6.9,0,12.5,5.6,12.5,12.5s-5.6,12.5-12.5,12.5s-12.5-5.6-12.5-12.5S518.1,2.5,525,2.5 M525,0
			c-8.3,0-15,6.7-15,15c0,8.3,6.7,15,15,15s15-6.7,15-15C540,6.7,533.3,0,525,0L525,0z"/>
	</g>
</g>
<g>
	<circle class="st4" cx="627" cy="15" r="13.8"/>
	<g>
		<path class="st3" d="M627,2.5c6.9,0,12.5,5.6,12.5,12.5s-5.6,12.5-12.5,12.5s-12.5-5.6-12.5-12.5S620.1,2.5,627,2.5 M627,0
			c-8.3,0-15,6.7-15,15c0,8.3,6.7,15,15,15s15-6.7,15-15C642,6.7,635.3,0,627,0L627,0z"/>
	</g>
</g>
<g>
	<circle class="st4" cx="729" cy="15" r="13.8"/>
	<g>
		<path class="st3" d="M729,2.5c6.9,0,12.5,5.6,12.5,12.5s-5.6,12.5-12.5,12.5s-12.5-5.6-12.5-12.5S722.1,2.5,729,2.5 M729,0
			c-8.3,0-15,6.7-15,15c0,8.3,6.7,15,15,15s15-6.7,15-15C744,6.7,737.3,0,729,0L729,0z"/>
	</g>
</g>
<polyline class="st5" points="210.8,15.2 216,19.9 227.2,9.3 "/>
<polyline class="st5" points="312.8,15.2 318,19.9 329.2,9.3 "/>
<polyline class="st5" points="414.8,15.2 420,19.9 431.2,9.3 "/>
<g>
	<rect x="0.1" y="45.4" class="st30" width="76.9" height="73.3"/>
	<text transform="matrix(1 0 0 1 9.574839e-02 55.4551)"><tspan x="0" y="0" class="st31 st32">Appeal</tspan><tspan x="0" y="16.8" class="st31 st32">submitted</tspan></text>
	<rect x="101.8" y="45.4" class="st30" width="99" height="56.5"/>
	<text transform="matrix(1 0 0 1 101.7746 55.4651)"><tspan x="0" y="0" class="st31 st32">Upload</tspan><tspan x="0" y="16.8" class="st31 st32">Home Office</tspan><tspan x="0" y="33.6" class="st31 st32">bundle</tspan></text>
	<rect x="204" y="45.4" class="st30" width="99" height="75.7"/>
	<text transform="matrix(1 0 0 1 204.0013 55.3795)"><tspan x="0" y="0" class="st31 st32">Await </tspan><tspan x="0" y="16.8" class="st31 st32">Appeal</tspan><tspan x="0" y="33.6" class="st31 st32">Skeleton</tspan><tspan x="0" y="50.4" class="st31 st32">Argument </tspan></text>
	<rect x="305.1" y="45.4" class="st30" width="99" height="75.7"/>
	<text transform="matrix(1 0 0 1 305.1234 55.4001)"><tspan x="0" y="0" class="st31 st32">Review </tspan><tspan x="0" y="16.8" class="st31 st32">Appeal</tspan><tspan x="0" y="33.6" class="st31 st32">Skeleton </tspan><tspan x="0" y="50.4" class="st31 st32">Argument</tspan></text>
	<rect x="407.7" y="45.4" class="st30" width="99" height="75.7"/>
	<text transform="matrix(1 0 0 1 407.7157 55.3749)" class="st33 st32">Listing</text>
	<rect x="509.8" y="45.2" class="st30" width="99" height="75.7"/>
	<text transform="matrix(1 0 0 1 509.7726 55.2057)" class="st31 st32">Pre hearing</text>
	<rect x="612" y="45.4" class="st30" width="99" height="75.7"/>
	<text transform="matrix(1 0 0 1 611.9848 55.4405)" class="st31 st32">Hearing</text>
	<rect x="714.1" y="45.4" class="st30" width="99" height="75.7"/>
	<text transform="matrix(1 0 0 1 714.1376 55.4511)" class="st31 st32">Decision</text>
</g>
</svg>
