<?xml version="1.0" encoding="utf-8"?>
<!-- Generator: Adobe Illustrator 23.0.6, SVG Export Plug-In . SVG Version: 6.00 Build 0)  -->
<svg version="1.1" id="Layer_1" xmlns="http://www.w3.org/2000/svg" xmlns:xlink="http://www.w3.org/1999/xlink" x="0px" y="0px"
	 width="782px" height="110.9px" viewBox="0 0 782 110.9" style="enable-background:new 0 0 782 110.9;" xml:space="preserve">
<style type="text/css">
	.st0{fill-rule:evenodd;clip-rule:evenodd;fill:#F3F2F1;}
	.st1{fill:none;stroke:#008242;stroke-width:3;stroke-miterlimit:10;}
	.st2{fill:#008242;}
	.st3{fill:#FFFFFF;}
	.st4{fill:none;stroke:#FFFFFF;stroke-width:4;stroke-miterlimit:10;}
	.st5{fill:#F3F2F1;}
	.st6{fill:#1D70B8;}
	.st7{fill:none;}
	.st8{font-family:'ArialMT';}
	.st9{font-size:14px;}
	.st10{font-family:'Arial-BoldMT';}
	.st11{fill:#F8F8F8;}
	.st12{fill:#FFFFFF;stroke:#979797;stroke-width:3;}
	.st13{fill:#D7D7D7;}
	.st14{fill:none;stroke:#979797;}
	.st15{fill:none;stroke:#979797;stroke-linecap:square;}
	.st16{fill:#C9E1F1;}
	.st17{fill:#FFFFFF;stroke:#000000;stroke-width:3;}
	.st18{fill:none;stroke:#FF0000;stroke-width:2;}
	.st19{fill:#9B9B9B;}
	.st20{fill-rule:evenodd;clip-rule:evenodd;fill:#D8D8D8;}
	.st21{fill:#FFFFFF;stroke:#9B9B9B;}
	.st22{fill:none;stroke:#9B9B9B;}
	.st23{fill:#FFFFFF;stroke:#FF0000;stroke-width:2;}
	.st24{fill-rule:evenodd;clip-rule:evenodd;fill:#F8E71C;}
	.st25{fill-rule:evenodd;clip-rule:evenodd;}
	.st26{fill:none;stroke:#FFFFFF;stroke-width:4;stroke-linecap:square;}
	.st27{fill-rule:evenodd;clip-rule:evenodd;fill:#FFFFFF;}
	.st28{fill-rule:evenodd;clip-rule:evenodd;fill:#00703C;}
	.st29{fill:#B10E1E;}
	.st30{fill-rule:evenodd;clip-rule:evenodd;fill:#B10E1E;}
	.st31{fill-rule:evenodd;clip-rule:evenodd;fill:#B10E1E;stroke:#979797;}
	.st32{fill-rule:evenodd;clip-rule:evenodd;fill:#D0021B;}
</style>
<line class="st1" x1="15" y1="14.6" x2="729" y2="14.6"/>
<g>
	<circle class="st2" cx="15" cy="15" r="15"/>
</g>
<polyline class="st4" points="7,15.2 12.2,19.9 23.4,9.3 "/>
<g>
	<circle class="st2" cx="117" cy="15" r="15"/>
</g>
<polyline class="st4" points="108.8,15.2 114,19.9 125.2,9.3 "/>
<g>
	<circle class="st2" cx="219" cy="15" r="15"/>
</g>
<g>
	<circle class="st2" cx="321" cy="15" r="15"/>
</g>
<g>
	<circle class="st2" cx="423" cy="15" r="15"/>
</g>
<g>
	<circle class="st2" cx="525" cy="15" r="15"/>
</g>
<g>
	<circle class="st2" cx="627" cy="15" r="15"/>
</g>
<g>
	<circle class="st2" cx="729" cy="15" r="15"/>
</g>
<rect y="45.3" class="st7" width="64.8" height="27.4"/>
<text transform="matrix(1 0 0 1 -5.817729e-04 55.3534)"><tspan x="0" y="0" class="st8 st9">Appeal </tspan><tspan x="0" y="16.8" class="st8 st9">submitted</tspan></text>
<rect x="102" y="45.3" class="st7" width="78.5" height="44.2"/>
<text transform="matrix(1 0 0 1 102.0002 55.3534)"><tspan x="0" y="0" class="st8 st9">Upload </tspan><tspan x="0" y="16.8" class="st8 st9">Home O</tspan><tspan x="52.1" y="16.8" class="st8 st9">f</tspan><tspan x="55.8" y="16.8" class="st8 st9">fice </tspan><tspan x="0" y="33.6" class="st8 st9">bundle</tspan></text>
<rect x="204" y="45.3" class="st7" width="70.7" height="62.7"/>
<text transform="matrix(1 0 0 1 204.0004 55.3539)"><tspan x="0" y="0" class="st8 st9">A</tspan><tspan x="9.1" y="0" class="st8 st9">wait </tspan><tspan x="0" y="16.8" class="st8 st9">Appeal </tspan><tspan x="0" y="33.6" class="st8 st9">Skeleton </tspan><tspan x="0" y="50.4" class="st8 st9">Argument</tspan></text>
<rect x="306.1" y="45.3" class="st7" width="61.9" height="62.7"/>
<text transform="matrix(1 0 0 1 306.0812 55.3534)"><tspan x="0" y="0" class="st8 st9">Review </tspan><tspan x="0" y="16.8" class="st8 st9">Appeal </tspan><tspan x="0" y="33.6" class="st8 st9">Skeleton </tspan><tspan x="0" y="50.4" class="st8 st9">Argument</tspan></text>
<rect x="408" y="45.3" class="st7" width="47.1" height="12.1"/>
<text transform="matrix(1 0 0 1 408.0004 55.3534)" class="st8 st9">Listing</text>
<rect x="510" y="45.3" class="st7" width="82" height="10.6"/>
<text transform="matrix(1 0 0 1 510.0004 55.3534)" class="st8 st9">Pre hearing</text>
<rect x="612" y="45.3" class="st7" width="53" height="12.1"/>
<text transform="matrix(1 0 0 1 612.0004 55.3534)" class="st8 st9">Hearing</text>
<rect x="714" y="44.9" class="st7" width="69.3" height="11.1"/>
<text transform="matrix(1 0 0 1 714.0004 54.8927)" class="st10 st9">Decision</text>
<polyline class="st4" points="210.8,15.2 216,19.9 227.2,9.3 "/>
<polyline class="st4" points="312.8,15.2 318,19.9 329.2,9.3 "/>
<polyline class="st4" points="414.8,15.2 420,19.9 431.2,9.3 "/>
<polyline class="st4" points="516.8,15.2 522,19.9 533.2,9.3 "/>
<polyline class="st4" points="618.8,15.2 624,19.9 635.2,9.3 "/>
</svg>
