<?xml version="1.0" encoding="utf-8"?>
<!-- Generator: Adobe Illustrator 25.1.0, SVG Export Plug-In . SVG Version: 6.00 Build 0)  -->
<svg version="1.1" id="Layer_1" xmlns="http://www.w3.org/2000/svg" xmlns:xlink="http://www.w3.org/1999/xlink" x="0px" y="0px"
	 width="1102px" height="564px" viewBox="0 0 1102 564" style="enable-background:new 0 0 1102 564;" xml:space="preserve">
<style type="text/css">
	.st0{fill:#F3F2F1;}
	.st1{fill-rule:evenodd;clip-rule:evenodd;fill:#F3F2F1;}
	.st2{fill:none;stroke:#008242;stroke-width:3;stroke-miterlimit:10;}
	.st3{fill:#008242;}
	.st4{fill:#FFFFFF;}
	.st5{fill:none;stroke:#FFFFFF;stroke-width:4;stroke-miterlimit:10;}
	.st6{fill:#1D70B8;}
	.st7{fill:#F8F8F8;}
	.st8{fill:#FFFFFF;stroke:#979797;stroke-width:3;}
	.st9{fill:#D7D7D7;}
	.st10{fill:none;stroke:#979797;}
	.st11{fill:none;stroke:#979797;stroke-linecap:square;}
	.st12{fill:#C9E1F1;}
	.st13{fill:#FFFFFF;stroke:#000000;stroke-width:3;}
	.st14{fill:none;stroke:#FF0000;stroke-width:2;}
	.st15{fill:#9B9B9B;}
	.st16{fill-rule:evenodd;clip-rule:evenodd;fill:#D8D8D8;}
	.st17{fill:#FFFFFF;stroke:#9B9B9B;}
	.st18{fill:none;stroke:#9B9B9B;}
	.st19{fill:#FFFFFF;stroke:#FF0000;stroke-width:2;}
	.st20{fill-rule:evenodd;clip-rule:evenodd;fill:#F8E71C;}
	.st21{fill-rule:evenodd;clip-rule:evenodd;}
	.st22{fill:none;stroke:#FFFFFF;stroke-width:4;stroke-linecap:square;}
	.st23{fill-rule:evenodd;clip-rule:evenodd;fill:#FFFFFF;}
	.st24{fill-rule:evenodd;clip-rule:evenodd;fill:#00703C;}
	.st25{fill:#B10E1E;}
	.st26{fill-rule:evenodd;clip-rule:evenodd;fill:#B10E1E;}
	.st27{fill-rule:evenodd;clip-rule:evenodd;fill:#B10E1E;stroke:#979797;}
	.st28{fill-rule:evenodd;clip-rule:evenodd;fill:#D0021B;}
	.st29{fill:none;stroke:#DF0A15;stroke-miterlimit:10;}
	.st30{fill:#F7931E;}
	.st31{fill:none;}
	.st32{font-family:'ArialMT';}
	.st33{font-size:4px;}
	.st34{font-size:3px;}
	.st35{font-size:16px;}
	.st36{font-size:11px;}
</style>
<rect id="Rectangle_2_" class="st7" width="1102" height="564"/>
<path id="Shape" class="st8" d="M317.5,44L97.3,237.3l0,0c-0.8,0.7-1.3,1.7-1.3,2.9v271.9c0,2.1,1.7,3.9,3.9,3.9h440.3
	c2.1,0,3.9-1.7,3.9-3.9V240.2C544,239.1,318.9,42.7,317.5,44z"/>
<rect x="126" y="322" class="st16" width="170" height="20"/>
<rect id="Rectangle-Copy" x="126" y="354" class="st16" width="170" height="18"/>
<rect id="Rectangle-Copy-3_1_" x="478" y="262" class="st16" width="42" height="54"/>
<rect id="Rectangle-Copy-2" x="126" y="386" class="st16" width="170" height="18"/>
<polygon id="Path-4-Copy_1_" class="st12" points="759.4,242 456,290 721.4,420 708.6,331 "/>
<circle id="Oval-Copy_1_" class="st13" cx="856" cy="354" r="150"/>
<circle id="Oval-Copy-2" class="st17" cx="856" cy="354" r="112"/>
<circle id="Oval-Copy-4" class="st18" cx="422" cy="286" r="28"/>
<circle id="Oval-Copy-5" class="st17" cx="422" cy="286" r="18"/>
<circle id="Oval-Copy-3" class="st17" cx="856" cy="354" r="74"/>
<rect id="Rectangle-Copy-4_1_" x="767" y="337" class="st19" width="178" height="40"/>
<rect x="410.2" y="284.1" class="st31" width="27.7" height="3.2"/>
<text transform="matrix(1 0 0 1 410.1908 287.0039)" class="st32 st33">XX XX XXXX</text>
<rect x="407.7" y="303.4" class="st31" width="4.2" height="3.2"/>
<text transform="matrix(1 0 0 1 407.7138 305.5166)" class="st32 st34">X</text>
<rect x="435.8" y="303.4" class="st31" width="3.1" height="3.2"/>
<text transform="matrix(1 0 0 1 435.7894 305.5698)" class="st32 st34">X</text>
<rect x="416" y="307.5" class="st31" width="3.1" height="3.2"/>
<text transform="matrix(1 0 0 1 415.9938 309.6312)" class="st32 st34">X</text>
<rect x="425" y="307.5" class="st31" width="3.1" height="3.2"/>
<text transform="matrix(1 0 0 1 425.0357 309.6457)" class="st32 st34">X</text>
<rect x="407.8" y="266.6" class="st31" width="4.2" height="3.2"/>
<text transform="matrix(1 0 0 1 407.776 268.7949)" class="st32 st34">X</text>
<rect x="416" y="262.4" class="st31" width="4.2" height="3.2"/>
<text transform="matrix(1 0 0 1 416.0093 264.5664)" class="st32 st34">X</text>
<rect x="425.1" y="262.4" class="st31" width="4.2" height="3.2"/>
<text transform="matrix(1 0 0 1 425.1164 264.5644)" class="st32 st34">X</text>
<rect x="435.8" y="266.7" class="st31" width="4.2" height="3.2"/>
<text transform="matrix(1 0 0 1 435.7945 268.8036)" class="st32 st34">X</text>
<rect x="788.2" y="351.6" class="st31" width="136.3" height="15.1"/>
<text transform="matrix(1 0 0 1 809.2277 363.0785)" class="st32 st35">XX XX XXXX</text>
<rect x="794" y="422.6" class="st31" width="10.6" height="15.1"/>
<text transform="matrix(1 0 0 1 794.0131 430.4276)" class="st32 st36">X</text>
<rect x="828" y="438.7" class="st31" width="10.6" height="15.1"/>
<text transform="matrix(1 0 0 1 828.0441 446.5435)" class="st32 st36">X</text>
<rect x="866.3" y="438.8" class="st31" width="10.6" height="15.1"/>
<text transform="matrix(1 0 0 1 866.3316 446.6256)" class="st32 st36">X</text>
<rect x="902.4" y="422.6" class="st31" width="10.6" height="15.1"/>
<text transform="matrix(1 0 0 1 902.3508 430.4892)" class="st32 st36">X</text>
<rect x="793.9" y="272.7" class="st31" width="10.6" height="15.1"/>
<text transform="matrix(1 0 0 1 793.8842 280.5318)" class="st32 st36">X</text>
<rect x="828.2" y="256.6" class="st31" width="10.6" height="15.1"/>
<text transform="matrix(1 0 0 1 828.2418 264.5019)" class="st32 st36">X</text>
<rect x="866.1" y="256.6" class="st31" width="10.6" height="15.1"/>
<text transform="matrix(1 0 0 1 866.147 264.472)" class="st32 st36">X</text>
<rect x="902.6" y="272.5" class="st31" width="10.6" height="15.1"/>
<text transform="matrix(1 0 0 1 902.5817 280.385)" class="st32 st36">X</text>
</svg>
