<?xml version="1.0" encoding="utf-8"?>
<!-- Generator: Adobe Illustrator 23.1.0, SVG Export Plug-In . SVG Version: 6.00 Build 0)  -->
<svg version="1.1" id="Layer_1" xmlns="http://www.w3.org/2000/svg" xmlns:xlink="http://www.w3.org/1999/xlink" x="0px" y="0px"
	 width="990px" height="108px" viewBox="0 0 990 108" style="enable-background:new 0 0 990 108;" xml:space="preserve">
<style type="text/css">
	.st0{fill:#F3F2F1;}
	.st1{fill-rule:evenodd;clip-rule:evenodd;fill:#F3F2F1;}
	.st2{fill:none;stroke:#008242;stroke-width:3;stroke-miterlimit:10;}
	.st3{fill:#008242;}
	.st4{fill:#FFFFFF;}
	.st5{fill:none;stroke:#FFFFFF;stroke-width:4;stroke-miterlimit:10;}
	.st6{fill:#F8F8F8;}
	.st7{fill:#FFFFFF;stroke:#979797;stroke-width:3;}
	.st8{fill:#D7D7D7;}
	.st9{fill:none;stroke:#979797;}
	.st10{fill:none;stroke:#979797;stroke-linecap:square;}
	.st11{fill:#C9E1F1;}
	.st12{fill:#FFFFFF;stroke:#000000;stroke-width:3;}
	.st13{fill:none;stroke:#FF0000;stroke-width:2;}
	.st14{fill:#9B9B9B;}
	.st15{fill-rule:evenodd;clip-rule:evenodd;fill:#D8D8D8;}
	.st16{fill:#FFFFFF;stroke:#9B9B9B;}
	.st17{fill:none;stroke:#9B9B9B;}
	.st18{fill:#FFFFFF;stroke:#FF0000;stroke-width:2;}
	.st19{fill-rule:evenodd;clip-rule:evenodd;fill:#F8E71C;}
	.st20{fill-rule:evenodd;clip-rule:evenodd;}
	.st21{fill:none;stroke:#FFFFFF;stroke-width:4;stroke-linecap:square;}
	.st22{fill-rule:evenodd;clip-rule:evenodd;fill:#FFFFFF;}
	.st23{fill-rule:evenodd;clip-rule:evenodd;fill:#00703C;}
	.st24{fill:#B10E1E;}
	.st25{fill-rule:evenodd;clip-rule:evenodd;fill:#B10E1E;}
	.st26{fill-rule:evenodd;clip-rule:evenodd;fill:#B10E1E;stroke:#979797;}
	.st27{fill-rule:evenodd;clip-rule:evenodd;fill:#D0021B;}
	.st28{fill:none;stroke:#DF0A15;stroke-miterlimit:10;}
	.st29{fill:#1D70B8;}
	.st30{fill:none;}
	.st31{font-family:'ArialMT';}
	.st32{font-size:14px;}
	.st33{font-family:'Arial-BoldMT';}
</style>
<line class="st2" x1="17.5" y1="15" x2="926.5" y2="15"/>
<circle class="st3" cx="15" cy="15" r="15"/>
<polyline class="st5" points="8,15.6 12.4,19.5 22,10.5 "/>
<circle class="st3" cx="107" cy="15" r="15"/>
<polyline class="st5" points="100,15.6 104.4,19.5 114,10.5 "/>
<circle class="st3" cx="199" cy="15" r="15"/>
<polyline class="st5" points="192,15.6 196.4,19.5 206,10.5 "/>
<circle class="st3" cx="291" cy="15" r="15"/>
<polyline class="st5" points="284,15.6 288.4,19.5 298,10.5 "/>
<circle class="st3" cx="383" cy="15" r="15"/>
<polyline class="st5" points="376,15.6 380.4,19.5 390,10.5 "/>
<circle class="st3" cx="475" cy="15" r="15"/>
<polyline class="st5" points="468,15.6 472.4,19.5 482,10.5 "/>
<circle class="st3" cx="567" cy="15" r="15"/>
<polyline class="st5" points="560,15.6 564.4,19.5 574,10.5 "/>
<circle class="st3" cx="659" cy="15" r="15"/>
<polyline class="st5" points="652,15.6 656.4,19.5 666,10.5 "/>
<circle class="st3" cx="751" cy="15" r="15"/>
<g>
	<circle class="st4" cx="843" cy="15" r="13.8"/>
	<path class="st3" d="M843,2.5c6.9,0,12.5,5.6,12.5,12.5s-5.6,12.5-12.5,12.5s-12.5-5.6-12.5-12.5S836.1,2.5,843,2.5 M843,0
		c-8.3,0-15,6.7-15,15c0,8.3,6.7,15,15,15c8.3,0,15-6.7,15-15C858,6.7,851.3,0,843,0L843,0z"/>
</g>
<g>
	<circle class="st4" cx="935" cy="15" r="13.8"/>
	<path class="st3" d="M935,2.5c6.9,0,12.5,5.6,12.5,12.5s-5.6,12.5-12.5,12.5s-12.5-5.6-12.5-12.5S928.1,2.5,935,2.5 M935,0
		c-8.3,0-15,6.7-15,15c0,8.3,6.7,15,15,15c8.3,0,15-6.7,15-15C950,6.7,943.3,0,935,0L935,0z"/>
</g>
<rect y="45.2" class="st30" width="69" height="51"/>
<text transform="matrix(1 0 0 1 -1.704497e-04 55.1887)"><tspan x="0" y="0" class="st31 st32">Appeal </tspan><tspan x="0" y="16.8" class="st31 st32">started</tspan></text>
<rect x="92" y="45.2" class="st30" width="69" height="51"/>
<text transform="matrix(1 0 0 1 91.9998 55.1887)"><tspan x="0" y="0" class="st31 st32">Appeal </tspan><tspan x="0" y="16.8" class="st31 st32">submitted</tspan></text>
<rect x="184" y="45.2" class="st30" width="78.4" height="51"/>
<text transform="matrix(1 0 0 1 183.9998 55.1887)"><tspan x="0" y="0" class="st31 st32">Awaiting </tspan><tspan x="0" y="16.8" class="st31 st32">respondent</tspan><tspan x="0" y="33.6" class="st31 st32">evidence</tspan></text>
<rect x="276" y="45.2" class="st30" width="69" height="51"/>
<text transform="matrix(1 0 0 1 275.9998 55.1887)"><tspan x="0" y="0" class="st31 st32">Case</tspan><tspan x="0" y="16.8" class="st31 st32">building</tspan></text>
<rect x="368" y="45.2" class="st30" width="69" height="51"/>
<text transform="matrix(1 0 0 1 367.9998 55.1887)"><tspan x="0" y="0" class="st31 st32">Case </tspan><tspan x="0" y="16.8" class="st31 st32">under </tspan><tspan x="0" y="33.6" class="st31 st32">review</tspan></text>
<rect x="460" y="45.2" class="st30" width="76.1" height="51"/>
<text transform="matrix(1 0 0 1 459.9998 55.1887)"><tspan x="0" y="0" class="st31 st32">Respondent </tspan><tspan x="0" y="16.8" class="st31 st32">review</tspan></text>
<rect x="552" y="45.2" class="st30" width="84.4" height="51"/>
<text transform="matrix(1 0 0 1 551.9998 55.1887)"><tspan x="0" y="0" class="st31 st32">Submit </tspan><tspan x="0" y="16.8" class="st31 st32">hearing </tspan><tspan x="0" y="33.6" class="st31 st32">requirements</tspan></text>
<rect x="644" y="45.2" class="st30" width="69" height="51"/>
<text transform="matrix(1 0 0 1 643.9999 55.1887)" class="st31 st32">Listing</text>
<rect x="736" y="45.2" class="st30" width="69" height="51"/>
<text transform="matrix(1 0 0 1 735.9999 55.1887)"><tspan x="0" y="0" class="st33 st32">Pre </tspan><tspan x="0" y="16.8" class="st33 st32">hearing</tspan></text>
<rect x="828" y="45.2" class="st30" width="69" height="51"/>
<text transform="matrix(1 0 0 1 827.9999 55.1887)" class="st31 st32">Hearing</text>
<rect x="920" y="45.2" class="st30" width="69" height="51"/>
<text transform="matrix(1 0 0 1 919.9999 55.1887)" class="st31 st32">Decision</text>
</svg>
