<?xml version="1.0" encoding="utf-8"?>
<!-- Generator: Adobe Illustrator 23.0.6, SVG Export Plug-In . SVG Version: 6.00 Build 0)  -->
<svg version="1.1" id="Layer_1" xmlns="http://www.w3.org/2000/svg" xmlns:xlink="http://www.w3.org/1999/xlink" x="0px" y="0px"
	 width="984px" height="108px" viewBox="0 0 984 108" style="enable-background:new 0 0 984 108;" xml:space="preserve">
<style type="text/css">
	.st0{fill-rule:evenodd;clip-rule:evenodd;fill:#F3F2F1;}
	.st1{fill:none;stroke:#008242;stroke-width:3;stroke-miterlimit:10;}
	.st2{fill:#008242;}
	.st3{fill:#FFFFFF;}
	.st4{fill:none;stroke:#FFFFFF;stroke-width:4;stroke-miterlimit:10;}
	.st5{fill:none;}
	.st6{font-family:'ArialMT';}
	.st7{font-size:14px;}
	.st8{font-family:'Arial-BoldMT';}
	.st9{fill:#F3F2F1;}
	.st10{fill:#1D70B8;}
	.st11{fill:#F8F8F8;}
	.st12{fill:#FFFFFF;stroke:#979797;stroke-width:3;}
	.st13{fill:#D7D7D7;}
	.st14{fill:none;stroke:#979797;}
	.st15{fill:none;stroke:#979797;stroke-linecap:square;}
	.st16{fill:#C9E1F1;}
	.st17{fill:#FFFFFF;stroke:#000000;stroke-width:3;}
	.st18{fill:none;stroke:#FF0000;stroke-width:2;}
	.st19{fill:#9B9B9B;}
	.st20{fill-rule:evenodd;clip-rule:evenodd;fill:#D8D8D8;}
	.st21{fill:#FFFFFF;stroke:#9B9B9B;}
	.st22{fill:none;stroke:#9B9B9B;}
	.st23{fill:#FFFFFF;stroke:#FF0000;stroke-width:2;}
	.st24{fill-rule:evenodd;clip-rule:evenodd;fill:#F8E71C;}
	.st25{fill-rule:evenodd;clip-rule:evenodd;}
	.st26{fill:none;stroke:#FFFFFF;stroke-width:4;stroke-linecap:square;}
	.st27{fill-rule:evenodd;clip-rule:evenodd;fill:#FFFFFF;}
	.st28{fill-rule:evenodd;clip-rule:evenodd;fill:#00703C;}
	.st29{fill:#B10E1E;}
	.st30{fill-rule:evenodd;clip-rule:evenodd;fill:#B10E1E;}
	.st31{fill-rule:evenodd;clip-rule:evenodd;fill:#B10E1E;stroke:#979797;}
	.st32{fill-rule:evenodd;clip-rule:evenodd;fill:#D0021B;}
</style>
<line class="st1" x1="15" y1="14.6" x2="937.6" y2="14.6"/>
<g>
	<g>
		<circle class="st2" cx="15" cy="15" r="15"/>
	</g>
	<polyline class="st4" points="7,15.2 12.2,19.9 23.4,9.3 	"/>
</g>
<g>
	<g>
		<circle class="st2" cx="107" cy="15" r="15"/>
	</g>
	<polyline class="st4" points="99,15.2 104.2,19.9 115.4,9.3 	"/>
</g>
<g>
	<g>
		<circle class="st2" cx="199" cy="15" r="15"/>
	</g>
	<polyline class="st4" points="191,15.2 196.2,19.9 207.4,9.3 	"/>
</g>
<g>
	<g>
		<circle class="st2" cx="291" cy="15" r="15"/>
	</g>
	<polyline class="st4" points="283,15.2 288.2,19.9 299.4,9.3 	"/>
</g>
<g>
	<g>
		<circle class="st2" cx="383" cy="15" r="15"/>
	</g>
	<polyline class="st4" points="375,15.2 380.2,19.9 391.4,9.3 	"/>
</g>
<rect y="45.3" class="st5" width="47.8" height="48.4"/>
<text transform="matrix(1 0 0 1 0 55.3534)"><tspan x="0" y="0" class="st6 st7">Appeal </tspan><tspan x="0" y="16.8" class="st6 st7">started</tspan></text>
<rect x="92" y="45.3" class="st5" width="61.8" height="48.4"/>
<text transform="matrix(1 0 0 1 92 55.3534)"><tspan x="0" y="0" class="st6 st7">Appeal </tspan><tspan x="0" y="16.8" class="st6 st7">submitted</tspan></text>
<rect x="184" y="45.3" class="st5" width="72.3" height="48.4"/>
<text transform="matrix(1 0 0 1 184 55.3534)"><tspan x="0" y="0" class="st6 st7">A</tspan><tspan x="9.1" y="0" class="st6 st7">waiting </tspan><tspan x="0" y="16.8" class="st6 st7">respondent </tspan><tspan x="0" y="33.6" class="st6 st7">evidence</tspan></text>
<rect x="276" y="45.3" class="st5" width="60.3" height="48.4"/>
<text transform="matrix(1 0 0 1 276 55.3534)"><tspan x="0" y="0" class="st6 st7">Case </tspan><tspan x="0" y="16.8" class="st6 st7">building</tspan></text>
<rect x="368" y="45.3" class="st5" width="47.8" height="48.4"/>
<text transform="matrix(1 0 0 1 368 55.3534)"><tspan x="0" y="0" class="st6 st7">Case </tspan><tspan x="0" y="16.8" class="st6 st7">under </tspan><tspan x="0" y="33.6" class="st6 st7">review</tspan></text>
<rect x="460" y="45.3" class="st5" width="86.6" height="48.4"/>
<text transform="matrix(1 0 0 1 460 55.3534)"><tspan x="0" y="0" class="st6 st7">Respondent </tspan><tspan x="0" y="16.8" class="st6 st7">review</tspan></text>
<rect x="552" y="45.3" class="st5" width="90.5" height="48.4"/>
<text transform="matrix(1 0 0 1 552 55.3534)"><tspan x="0" y="0" class="st6 st7">Submit  </tspan><tspan x="0" y="16.8" class="st6 st7">hearing </tspan><tspan x="0" y="33.6" class="st6 st7">requirements</tspan></text>
<rect x="644" y="44.9" class="st5" width="47.8" height="48.4"/>
<text transform="matrix(1 0 0 1 644.0255 54.8922)" class="st6 st7">Listing</text>
<rect x="735.9" y="44.5" class="st5" width="47.8" height="48.4"/>
<text transform="matrix(1 0 0 1 735.924 54.5327)"><tspan x="0" y="0" class="st6 st7">Pre </tspan><tspan x="0" y="16.8" class="st6 st7">hearing</tspan></text>
<rect x="827.6" y="44.5" class="st5" width="60" height="48.4"/>
<text transform="matrix(1 0 0 1 827.5644 54.5327)" class="st6 st7">Hearing</text>
<rect x="920" y="44.5" class="st5" width="60" height="48.4"/>
<text transform="matrix(1 0 0 1 920 54.5327)" class="st8 st7">Decision</text>
<g>
	<g>
		<circle class="st2" cx="475" cy="15" r="15"/>
	</g>
	<polyline class="st4" points="466.8,15.2 472,19.9 483.2,9.3 	"/>
</g>
<g>
	<g>
		<g>
			<circle class="st2" cx="567" cy="15" r="15"/>
		</g>
	</g>
	<polyline class="st4" points="558.8,15.2 564,19.9 575.2,9.3 	"/>
</g>
<g>
	<g>
		<g>
			<circle class="st2" cx="659" cy="15" r="15"/>
		</g>
	</g>
	<polyline class="st4" points="650.8,15.2 656,19.9 667.2,9.3 	"/>
</g>
<g>
	<g>
		<circle class="st2" cx="751" cy="15" r="15"/>
	</g>
	<polyline class="st4" points="742.8,15.2 748,19.9 759.2,9.3 	"/>
</g>
<g>
	<g>
		<circle class="st2" cx="843" cy="15" r="15"/>
	</g>
	<polyline class="st4" points="834.8,15.2 840,19.9 851.2,9.3 	"/>
</g>
<g>
	<g>
		<circle class="st2" cx="935" cy="15" r="15"/>
	</g>
	<polyline class="st4" points="926.8,15.2 932,19.9 943.2,9.3 	"/>
</g>
</svg>
