<?xml version="1.0" encoding="utf-8"?>
<!-- Generator: Adobe Illustrator 23.0.6, SVG Export Plug-In . SVG Version: 6.00 Build 0)  -->
<svg version="1.1" id="Layer_1" xmlns="http://www.w3.org/2000/svg" xmlns:xlink="http://www.w3.org/1999/xlink" x="0px" y="0px"
	 width="782px" height="110.9px" viewBox="0 0 782 110.9" style="enable-background:new 0 0 782 110.9;" xml:space="preserve">
<style type="text/css">
	.st0{fill-rule:evenodd;clip-rule:evenodd;fill:#F3F2F1;}
	.st1{fill:none;stroke:#008242;stroke-width:3;stroke-miterlimit:10;}
	.st2{fill:#008242;}
	.st3{fill:#FFFFFF;}
	.st4{fill:none;stroke:#FFFFFF;stroke-width:4;stroke-miterlimit:10;}
	.st5{fill:none;}
	.st6{font-family:'ArialMT';}
	.st7{font-size:14px;}
	.st8{font-family:'Arial-BoldMT';}
	.st9{fill:#F3F2F1;}
	.st10{fill:#1D70B8;}
	.st11{fill:#F8F8F8;}
	.st12{fill:#FFFFFF;stroke:#979797;stroke-width:3;}
	.st13{fill:#D7D7D7;}
	.st14{fill:none;stroke:#979797;}
	.st15{fill:none;stroke:#979797;stroke-linecap:square;}
	.st16{fill:#C9E1F1;}
	.st17{fill:#FFFFFF;stroke:#000000;stroke-width:3;}
	.st18{fill:none;stroke:#FF0000;stroke-width:2;}
	.st19{fill:#9B9B9B;}
	.st20{fill-rule:evenodd;clip-rule:evenodd;fill:#D8D8D8;}
	.st21{fill:#FFFFFF;stroke:#9B9B9B;}
	.st22{fill:none;stroke:#9B9B9B;}
	.st23{fill:#FFFFFF;stroke:#FF0000;stroke-width:2;}
	.st24{fill-rule:evenodd;clip-rule:evenodd;fill:#F8E71C;}
	.st25{fill-rule:evenodd;clip-rule:evenodd;}
	.st26{fill:none;stroke:#FFFFFF;stroke-width:4;stroke-linecap:square;}
	.st27{fill-rule:evenodd;clip-rule:evenodd;fill:#FFFFFF;}
	.st28{fill-rule:evenodd;clip-rule:evenodd;fill:#00703C;}
	.st29{fill:#B10E1E;}
	.st30{fill-rule:evenodd;clip-rule:evenodd;fill:#B10E1E;}
	.st31{fill-rule:evenodd;clip-rule:evenodd;fill:#B10E1E;stroke:#979797;}
	.st32{fill-rule:evenodd;clip-rule:evenodd;fill:#D0021B;}
</style>
<line class="st1" x1="15" y1="14.6" x2="729" y2="14.6"/>
<g>
	<circle class="st2" cx="15" cy="15" r="15"/>
</g>
<polyline class="st4" points="7,15.2 12.2,19.9 23.4,9.3 "/>
<g>
	<circle class="st2" cx="117" cy="15" r="15"/>
</g>
<polyline class="st4" points="108.8,15.2 114,19.9 125.2,9.3 "/>
<g>
	<circle class="st2" cx="219" cy="15" r="15"/>
</g>
<polyline class="st4" points="210.8,15.2 216,19.9 227.2,9.3 "/>
<g>
	<circle class="st2" cx="321" cy="15" r="15"/>
</g>
<polyline class="st4" points="313.4,15.2 318.6,19.9 329.8,9.3 "/>
<g>
	<circle class="st3" cx="423" cy="15" r="13.8"/>
	<g>
		<path class="st2" d="M423,2.5c6.9,0,12.5,5.6,12.5,12.5s-5.6,12.5-12.5,12.5s-12.5-5.6-12.5-12.5S416.1,2.5,423,2.5 M423,0
			c-8.3,0-15,6.7-15,15s6.7,15,15,15s15-6.7,15-15S431.3,0,423,0L423,0z"/>
	</g>
</g>
<g>
	<circle class="st3" cx="525" cy="15" r="13.8"/>
	<g>
		<path class="st2" d="M525,2.5c6.9,0,12.5,5.6,12.5,12.5s-5.6,12.5-12.5,12.5s-12.5-5.6-12.5-12.5S518.1,2.5,525,2.5 M525,0
			c-8.3,0-15,6.7-15,15s6.7,15,15,15s15-6.7,15-15S533.3,0,525,0L525,0z"/>
	</g>
</g>
<g>
	<circle class="st3" cx="627" cy="15" r="13.8"/>
	<g>
		<path class="st2" d="M627,2.5c6.9,0,12.5,5.6,12.5,12.5s-5.6,12.5-12.5,12.5s-12.5-5.6-12.5-12.5S620.1,2.5,627,2.5 M627,0
			c-8.3,0-15,6.7-15,15s6.7,15,15,15s15-6.7,15-15S635.3,0,627,0L627,0z"/>
	</g>
</g>
<g>
	<circle class="st3" cx="729" cy="15" r="13.8"/>
	<g>
		<path class="st2" d="M729,2.5c6.9,0,12.5,5.6,12.5,12.5s-5.6,12.5-12.5,12.5s-12.5-5.6-12.5-12.5S722.1,2.5,729,2.5 M729,0
			c-8.3,0-15,6.7-15,15s6.7,15,15,15s15-6.7,15-15S737.3,0,729,0L729,0z"/>
	</g>
</g>
<rect y="45.3" class="st5" width="64.8" height="27.4"/>
<text transform="matrix(1 0 0 1 -5.817729e-04 55.3533)"><tspan x="0" y="0" class="st6 st7">Appeal </tspan><tspan x="0" y="16.8" class="st6 st7">submitted</tspan></text>
<rect x="102" y="45.3" class="st5" width="78.5" height="44.2"/>
<text transform="matrix(1 0 0 1 102.0002 55.3533)"><tspan x="0" y="0" class="st6 st7">Upload </tspan><tspan x="0" y="16.8" class="st6 st7">Home O</tspan><tspan x="52.1" y="16.8" class="st6 st7">f</tspan><tspan x="55.8" y="16.8" class="st6 st7">fice </tspan><tspan x="0" y="33.6" class="st6 st7">bundle</tspan></text>
<rect x="204" y="45.3" class="st5" width="62.6" height="62.7"/>
<text transform="matrix(1 0 0 1 204.0004 55.3533)"><tspan x="0" y="0" class="st6 st7">A</tspan><tspan x="9.1" y="0" class="st6 st7">wait </tspan><tspan x="0" y="16.8" class="st6 st7">Appeal </tspan><tspan x="0" y="33.6" class="st6 st7">Skeleton </tspan><tspan x="0" y="50.4" class="st6 st7">Argument</tspan></text>
<rect x="306.1" y="45.3" class="st5" width="61.9" height="62.7"/>
<text transform="matrix(1 0 0 1 306.0812 55.3533)"><tspan x="0" y="0" class="st6 st7">Review </tspan><tspan x="0" y="16.8" class="st6 st7">Appeal </tspan><tspan x="0" y="33.6" class="st6 st7">Skeleton </tspan><tspan x="0" y="50.4" class="st6 st7">Argument</tspan></text>
<rect x="408" y="45.3" class="st5" width="47.1" height="12.1"/>
<text transform="matrix(1 0 0 1 408.0004 55.3533)" class="st8 st7">Listing</text>
<rect x="510" y="45.3" class="st5" width="82" height="10.6"/>
<text transform="matrix(1 0 0 1 510.0004 55.3533)" class="st6 st7">Pre hearing</text>
<rect x="612" y="45.3" class="st5" width="53" height="12.1"/>
<text transform="matrix(1 0 0 1 612.0004 55.3533)" class="st6 st7">Hearing</text>
<rect x="714" y="44.9" class="st5" width="69.3" height="11.1"/>
<text transform="matrix(1 0 0 1 714.0004 54.8926)" class="st6 st7">Decision</text>
</svg>
